<svg xmlns="http://www.w3.org/2000/svg" width="800" height="500" viewBox="0 0 800 500">
  <rect width="800" height="500" fill="#1E293B" rx="12"/>
  <rect x="40" y="40" width="200" height="420" fill="#2D3748" rx="8"/>
  <circle cx="140" cy="120" r="40" fill="#8B5CF6"/>
  <rect x="80" y="180" width="120" height="12" fill="#4A5568" rx="4"/>
  <rect x="60" y="210" width="160" height="8" fill="#4A5568" rx="4"/>
  <rect x="60" y="230" width="160" height="8" fill="#4A5568" rx="4"/>
  <rect x="60" y="250" width="120" height="8" fill="#4A5568" rx="4"/>
  <rect x="280" y="40" width="200" height="420" fill="#2D3748" rx="8"/>
  <circle cx="380" cy="120" r="40" fill="#F472B6"/>
  <rect x="320" y="180" width="120" height="12" fill="#4A5568" rx="4"/>
  <rect x="300" y="210" width="160" height="8" fill="#4A5568" rx="4"/>
  <rect x="300" y="230" width="160" height="8" fill="#4A5568" rx="4"/>
  <rect x="300" y="250" width="120" height="8" fill="#4A5568" rx="4"/>
  <rect x="520" y="40" width="240" height="420" fill="#2D3748" rx="8"/>
  <circle cx="640" cy="120" r="40" fill="#34D399"/>
  <rect x="580" y="180" width="120" height="12" fill="#4A5568" rx="4"/>
  <rect x="540" y="210" width="200" height="8" fill="#4A5568" rx="4"/>
  <rect x="540" y="230" width="200" height="8" fill="#4A5568" rx="4"/>
  <rect x="540" y="250" width="160" height="8" fill="#4A5568" rx="4"/>
  <text x="400" y="490" text-anchor="middle" font-family="system-ui" font-size="14" fill="#64748B">User Personas</text>
</svg>
